<svg xmlns="http://www.w3.org/2000/svg" xmlns:xlink="http://www.w3.org/1999/xlink" width="500" zoomAndPan="magnify" viewBox="0 0 375 374.999991" height="500" preserveAspectRatio="xMidYMid meet" version="1.0"><defs><g/></defs><g fill="#000000" fill-opacity="1"><g transform="translate(92.319968, 316.394133)"><g><path d="M 177.390625 0 L 12.953125 0 L 12.953125 -25.40625 L 144.59375 -212.953125 L 143.453125 -216.40625 L 17.875 -216.40625 L 17.875 -239.6875 L 176.40625 -239.6875 L 176.40625 -214.4375 L 44.921875 -26.71875 L 45.90625 -23.28125 L 177.390625 -23.28125 Z M 177.390625 0 "/></g></g></g><g fill="#000000" fill-opacity="1"><g transform="translate(107.723882, 108.66598)"><g><path d="M 171.421875 81.375 C 171.421875 98.726562 168.3125 113.640625 162.09375 126.109375 C 155.882812 138.578125 146.410156 148.191406 133.671875 154.953125 C 120.929688 161.710938 104.945312 165.09375 85.71875 165.09375 C 66.488281 165.09375 50.5 161.710938 37.75 154.953125 C 25.007812 148.191406 15.53125 138.578125 9.3125 126.109375 C 3.101562 113.640625 0 98.726562 0 81.375 L 0 25.90625 L 171.421875 25.90625 Z M 17.125 79.375 C 17.125 93.6875 19.347656 105.53125 23.796875 114.90625 C 28.253906 124.289062 35.523438 131.40625 45.609375 136.25 C 55.691406 141.09375 69.0625 143.515625 85.71875 143.515625 C 102.445312 143.515625 115.832031 141.09375 125.875 136.25 C 135.914062 131.40625 143.164062 124.289062 147.625 114.90625 C 152.082031 105.53125 154.3125 93.6875 154.3125 79.375 L 154.3125 46.078125 L 17.125 46.078125 Z M 17.125 79.375 "/></g></g></g></svg>